<?xml version="1.0" encoding="UTF-8"?>
<svg xmlns="http://www.w3.org/2000/svg" viewBox="0 0 1060 440" xml:space="preserve">
  <path fill="#FFF" d="M0 0h1060v440H0z"></path>
  <g fill="#267326">
    <path d="M500.109 320v-70.1h14.3v40.2h.4l15.7-19.7h16l-17.4 20.4 18.7 29.2h-15.9l-11.2-19.3-6.3 7.1V320h-14.3zM566.395 321.2c-2.267 0-4.317-.385-6.15-1.15-1.834-.766-3.384-1.833-4.65-3.2-1.268-1.366-2.25-2.95-2.95-4.75-.7-1.8-1.05-3.766-1.05-5.9 0-5.2 2.2-9.266 6.6-12.2 4.4-2.933 11.5-4.9 21.3-5.9-.134-2.2-.785-3.95-1.95-5.25-1.167-1.3-3.117-1.95-5.85-1.95-2.134 0-4.25.4-6.35 1.2-2.1.8-4.35 1.9-6.75 3.3l-5.3-9.7c3.2-1.933 6.55-3.5 10.05-4.7s7.215-1.8 11.15-1.8c6.4 0 11.283 1.817 14.65 5.45 3.366 3.634 5.05 9.285 5.05 16.95V320h-12l-1-5.1h-.4c-2.134 1.867-4.367 3.384-6.7 4.55-2.334 1.166-4.9 1.75-7.7 1.75zm5-11.4c1.666 0 3.1-.365 4.3-1.1 1.2-.733 2.466-1.766 3.8-3.1v-8.7c-5.2.734-8.8 1.8-10.8 3.2s-3 3.067-3 5c0 1.6.516 2.784 1.55 3.55 1.033.767 2.416 1.15 4.15 1.15zM606.613 320v-49.6h12l1 8.7h.4c1.8-3.4 3.966-5.9 6.5-7.5 2.533-1.6 5.066-2.4 7.6-2.4 1.4 0 2.55.084 3.45.25.9.167 1.715.417 2.45.75l-2.4 12.7c-.935-.266-1.8-.465-2.6-.6-.8-.133-1.734-.2-2.8-.2-1.867 0-3.817.667-5.85 2-2.034 1.334-3.717 3.7-5.05 7.1V320h-14.7zM659.914 321.2c-2.534 0-4.667-.4-6.4-1.2-1.734-.8-3.117-1.916-4.15-3.35-1.035-1.433-1.785-3.166-2.25-5.2-.467-2.033-.7-4.316-.7-6.85v-54.7h14.7v55.3c0 1.534.283 2.6.85 3.2.566.6 1.15.9 1.75.9h.85c.233 0 .55-.065.95-.2l1.8 10.9c-.8.333-1.817.616-3.05.85-1.234.233-2.684.35-4.35.35zM689.626 321.2c-3.267 0-6.617-.635-10.05-1.9-3.434-1.266-6.417-2.933-8.95-5l6.6-9.2c2.266 1.734 4.433 3.034 6.5 3.9 2.065.867 4.166 1.3 6.3 1.3 2.2 0 3.8-.365 4.8-1.1 1-.733 1.5-1.766 1.5-3.1 0-.8-.284-1.516-.85-2.15-.567-.633-1.334-1.216-2.3-1.75a22.782 22.782 0 0 0-3.25-1.45 75.238 75.238 0 0 1-3.7-1.45c-1.535-.6-3.067-1.3-4.6-2.1a19.362 19.362 0 0 1-4.2-2.95 14.45 14.45 0 0 1-3.1-4.1c-.8-1.565-1.2-3.383-1.2-5.45 0-2.266.45-4.366 1.35-6.3a13.492 13.492 0 0 1 3.85-4.9c1.666-1.333 3.666-2.383 6-3.15 2.333-.766 4.933-1.15 7.8-1.15 3.8 0 7.133.65 10 1.95 2.866 1.3 5.366 2.75 7.5 4.35l-6.6 8.8c-1.8-1.333-3.567-2.365-5.3-3.1-1.734-.733-3.467-1.1-5.2-1.1-3.734 0-5.6 1.3-5.6 3.9 0 .8.266 1.484.8 2.05.533.567 1.25 1.084 2.15 1.55.9.467 1.933.917 3.1 1.35 1.166.434 2.383.884 3.65 1.35 1.6.6 3.183 1.285 4.75 2.05 1.565.767 3 1.717 4.3 2.85 1.3 1.134 2.35 2.517 3.15 4.15.8 1.634 1.2 3.584 1.2 5.85 0 2.267-.435 4.367-1.3 6.3-.867 1.935-2.167 3.617-3.9 5.05-1.734 1.435-3.867 2.567-6.4 3.4-2.534.833-5.467 1.25-8.8 1.25zM719.318 320v-49.6h12l1 8.7h.4c1.8-3.4 3.966-5.9 6.5-7.5 2.533-1.6 5.066-2.4 7.6-2.4 1.4 0 2.55.084 3.45.25.9.167 1.715.417 2.45.75l-2.4 12.7c-.935-.266-1.8-.465-2.6-.6-.8-.133-1.734-.2-2.8-.2-1.867 0-3.817.667-5.85 2-2.034 1.334-3.717 3.7-5.05 7.1V320h-14.7zM774.022 321.2c-5.4 0-9.317-1.766-11.75-5.3-2.434-3.533-3.65-8.433-3.65-14.7v-30.8h14.7v28.9c0 3.6.5 6.067 1.5 7.4 1 1.334 2.565 2 4.7 2 1.866 0 3.433-.433 4.7-1.3 1.266-.866 2.633-2.266 4.1-4.2v-32.8h14.7V320h-12l-1.1-6.9h-.3c-2.134 2.534-4.417 4.517-6.85 5.95-2.434 1.433-5.35 2.15-8.75 2.15zM815.919 320v-70.1h14.7v17.2l-.7 8.9c1.866-1.666 4.033-3.216 6.5-4.65 2.466-1.433 5.4-2.15 8.8-2.15 5.4 0 9.316 1.767 11.75 5.3 2.433 3.534 3.65 8.435 3.65 14.7V320h-14.7v-28.9c0-3.6-.484-6.066-1.45-7.4-.967-1.333-2.517-2-4.65-2-1.867 0-3.467.417-4.8 1.25-1.334.834-2.8 2.017-4.4 3.55V320h-14.7zM895.22 321.2c-3.535 0-6.834-.584-9.9-1.75-3.067-1.166-5.734-2.866-8-5.1-2.267-2.233-4.034-4.95-5.3-8.15-1.267-3.2-1.9-6.866-1.9-11 0-4 .666-7.616 2-10.85 1.333-3.233 3.083-5.966 5.25-8.2 2.166-2.233 4.65-3.95 7.45-5.15 2.8-1.2 5.7-1.8 8.7-1.8 3.533 0 6.616.6 9.25 1.8 2.633 1.2 4.833 2.867 6.6 5 1.766 2.134 3.083 4.65 3.95 7.55.866 2.9 1.3 6.05 1.3 9.45 0 1.334-.067 2.6-.2 3.8-.134 1.2-.267 2.1-.4 2.7h-29.7c.666 3.6 2.15 6.25 4.45 7.95 2.3 1.7 5.116 2.55 8.45 2.55 3.533 0 7.1-1.1 10.7-3.3l4.9 8.9c-2.534 1.734-5.35 3.1-8.45 4.1s-6.15 1.5-9.15 1.5zm-11-31.4h17.9c0-2.8-.634-5.065-1.9-6.8-1.268-1.733-3.4-2.6-6.4-2.6-2.334 0-4.384.767-6.15 2.3-1.768 1.534-2.918 3.9-3.45 7.1z"></path>
  </g>
  <path d="M500.15 220v-32.95h8.3c1.867 0 3.542.159 5.025.475 1.483.317 2.733.842 3.75 1.575a7.273 7.273 0 0 1 2.35 2.85c.55 1.167.825 2.6.825 4.3 0 3.233-1.034 5.642-3.1 7.225-2.067 1.583-4.95 2.375-8.65 2.375h-6.2V220h-2.3zm2.3-16.1h5.65c3.367 0 5.867-.6 7.5-1.8 1.633-1.2 2.45-3.15 2.45-5.85 0-2.767-.842-4.667-2.525-5.7-1.684-1.033-4.225-1.55-7.625-1.55h-5.45v14.9zM531.343 220.6a8.83 8.83 0 0 1-2.7-.4 6.418 6.418 0 0 1-2.2-1.2c-.634-.533-1.134-1.216-1.5-2.05-.367-.833-.55-1.816-.55-2.95 0-2.667 1.242-4.691 3.725-6.075 2.483-1.383 6.408-2.375 11.775-2.975 0-.9-.067-1.808-.2-2.725-.134-.917-.417-1.733-.85-2.45a5.185 5.185 0 0 0-1.75-1.75c-.734-.45-1.7-.675-2.9-.675-1.6 0-3.067.317-4.4.95-1.333.634-2.417 1.25-3.25 1.85l-1-1.65c.433-.3.958-.633 1.575-1 .616-.366 1.308-.7 2.075-1 .766-.3 1.6-.558 2.5-.775.9-.216 1.833-.325 2.8-.325 1.4 0 2.583.242 3.55.725a6.325 6.325 0 0 1 2.35 1.975c.6.833 1.033 1.809 1.3 2.925.266 1.117.4 2.325.4 3.625V220h-1.9l-.2-3.1h-.15a26.653 26.653 0 0 1-3.975 2.575 9.532 9.532 0 0 1-4.525 1.125zm.4-1.9c1.4 0 2.733-.333 4-1s2.65-1.633 4.15-2.9v-8.15c-2.467.3-4.55.667-6.25 1.1-1.7.434-3.067.95-4.1 1.55-1.033.6-1.775 1.284-2.225 2.05a4.946 4.946 0 0 0-.675 2.55c0 .867.133 1.6.4 2.2.267.6.633 1.092 1.1 1.475a4.58 4.58 0 0 0 1.625.85 6.911 6.911 0 0 0 1.975.275zm-2-28.6c-.534 0-.975-.175-1.325-.525-.35-.35-.525-.792-.525-1.325 0-.533.175-.975.525-1.325.35-.35.792-.525 1.325-.525.533 0 .975.175 1.325.525.35.35.525.792.525 1.325 0 .534-.175.975-.525 1.325-.35.35-.792.525-1.325.525zm8.9 0c-.534 0-.975-.175-1.325-.525-.35-.35-.525-.792-.525-1.325 0-.533.175-.975.525-1.325.35-.35.791-.525 1.325-.525.533 0 .975.175 1.325.525.35.35.525.792.525 1.325 0 .534-.175.975-.525 1.325-.35.35-.792.525-1.325.525zM557.842 220.6c-3.033 0-5.45-1.075-7.25-3.225-1.8-2.15-2.7-5.258-2.7-9.325 0-1.933.283-3.683.85-5.25.566-1.566 1.341-2.9 2.325-4a10.19 10.19 0 0 1 3.4-2.525 9.74 9.74 0 0 1 4.075-.875c1.466 0 2.741.259 3.825.775 1.083.518 2.225 1.242 3.425 2.175l-.1-4.4v-9.9h2.2V220h-1.9l-.2-3.1h-.15c-.967.967-2.109 1.825-3.425 2.575-1.317.75-2.775 1.125-4.375 1.125zm.3-1.95c1.333 0 2.608-.341 3.825-1.025 1.217-.683 2.458-1.658 3.725-2.925v-14.25c-1.267-1.133-2.458-1.933-3.575-2.4a8.821 8.821 0 0 0-3.425-.7 7.02 7.02 0 0 0-3.35.825 8.432 8.432 0 0 0-2.675 2.25c-.75.95-1.342 2.084-1.775 3.4-.434 1.317-.65 2.725-.65 4.225 0 1.6.175 3.05.525 4.35.35 1.3.858 2.409 1.525 3.325a7.122 7.122 0 0 0 2.475 2.15c.983.517 2.108.775 3.375.775zM580.726 220.6a8.83 8.83 0 0 1-2.7-.4 6.418 6.418 0 0 1-2.2-1.2c-.634-.533-1.134-1.216-1.5-2.05-.367-.833-.55-1.816-.55-2.95 0-2.667 1.242-4.691 3.725-6.075 2.483-1.383 6.408-2.375 11.775-2.975 0-.9-.067-1.808-.2-2.725-.134-.917-.417-1.733-.85-2.45a5.185 5.185 0 0 0-1.75-1.75c-.734-.45-1.7-.675-2.9-.675-1.6 0-3.067.317-4.4.95-1.333.634-2.417 1.25-3.25 1.85l-1-1.65c.433-.3.958-.633 1.575-1 .616-.366 1.308-.7 2.075-1 .766-.3 1.6-.558 2.5-.775.9-.216 1.833-.325 2.8-.325 1.4 0 2.583.242 3.55.725a6.325 6.325 0 0 1 2.35 1.975c.6.833 1.033 1.809 1.3 2.925.266 1.117.4 2.325.4 3.625V220h-1.9l-.2-3.1h-.15a26.653 26.653 0 0 1-3.975 2.575 9.535 9.535 0 0 1-4.525 1.125zm.399-1.9c1.4 0 2.733-.333 4-1s2.65-1.633 4.15-2.9v-8.15c-2.467.3-4.55.667-6.25 1.1-1.7.434-3.067.95-4.1 1.55-1.033.6-1.775 1.284-2.225 2.05a4.946 4.946 0 0 0-.675 2.55c0 .867.133 1.6.4 2.2.267.6.633 1.092 1.1 1.475a4.58 4.58 0 0 0 1.625.85 6.911 6.911 0 0 0 1.975.275zM606.543 231.55c-3.034 0-5.434-.6-7.2-1.8-1.767-1.2-2.65-2.817-2.65-4.85 0-1.067.316-2.1.95-3.1.633-1 1.5-1.9 2.6-2.7v-.2c-.6-.366-1.1-.866-1.5-1.5-.4-.633-.6-1.417-.6-2.35 0-1.066.3-1.975.9-2.725.6-.75 1.166-1.308 1.7-1.675v-.2c-.767-.667-1.458-1.566-2.075-2.7-.617-1.133-.925-2.433-.925-3.9 0-1.233.216-2.367.65-3.4a8.045 8.045 0 0 1 1.8-2.675 8.205 8.205 0 0 1 2.7-1.75 8.731 8.731 0 0 1 3.3-.625c.667 0 1.266.059 1.8.175.533.117.983.258 1.35.425h8.15v1.85h-5.6c.767.667 1.4 1.525 1.9 2.575.5 1.05.75 2.209.75 3.475 0 1.234-.217 2.367-.65 3.4-.434 1.034-1.025 1.925-1.775 2.675s-1.633 1.333-2.65 1.75a8.545 8.545 0 0 1-3.275.625 9.128 9.128 0 0 1-2.075-.25 6.837 6.837 0 0 1-1.925-.75 7.523 7.523 0 0 0-1.375 1.45c-.384.534-.575 1.2-.575 2 0 .867.316 1.609.95 2.225.633.617 1.85.925 3.65.925h5.15c2.7 0 4.691.442 5.975 1.325 1.283.883 1.925 2.275 1.925 4.175 0 1.033-.267 2.041-.8 3.025-.534.983-1.292 1.85-2.275 2.6-.984.75-2.175 1.35-3.575 1.8s-2.967.675-4.7.675zm.25-1.8c1.333 0 2.55-.175 3.65-.525s2.033-.809 2.8-1.375c.767-.567 1.358-1.208 1.775-1.925.417-.717.625-1.458.625-2.225 0-1.334-.475-2.275-1.425-2.825s-2.325-.825-4.125-.825h-5.15c-.267 0-.675-.025-1.225-.075-.55-.05-1.142-.158-1.775-.325-1.1.767-1.9 1.583-2.4 2.45-.5.866-.75 1.733-.75 2.6 0 1.5.691 2.716 2.075 3.65 1.383.933 3.358 1.4 5.925 1.4zm-.6-19.15c.833 0 1.625-.158 2.375-.475a5.78 5.78 0 0 0 1.975-1.375 6.751 6.751 0 0 0 1.35-2.15c.333-.833.5-1.75.5-2.75s-.167-1.917-.5-2.75c-.333-.833-.775-1.533-1.325-2.1a5.814 5.814 0 0 0-1.975-1.325 6.241 6.241 0 0 0-2.4-.475c-.867 0-1.675.158-2.425.475a6.165 6.165 0 0 0-1.975 1.325 6.197 6.197 0 0 0-1.35 2.075c-.333.817-.5 1.742-.5 2.775 0 1 .167 1.917.5 2.75a6.52 6.52 0 0 0 1.375 2.15 6.036 6.036 0 0 0 4.375 1.85zM630.396 220.6a10.16 10.16 0 0 1-7.525-3.3c-.984-1.066-1.768-2.375-2.35-3.925-.583-1.55-.875-3.325-.875-5.325s.292-3.791.875-5.375c.583-1.583 1.366-2.908 2.35-3.975a10.164 10.164 0 0 1 7.525-3.3c1.433 0 2.808.284 4.125.85a10.075 10.075 0 0 1 3.45 2.45c.983 1.067 1.767 2.392 2.35 3.975.583 1.584.875 3.375.875 5.375s-.292 3.775-.875 5.325c-.583 1.55-1.367 2.858-2.35 3.925a10.03 10.03 0 0 1-3.45 2.45c-1.317.566-2.692.85-4.125.85zm0-1.95c1.2 0 2.325-.258 3.375-.775a7.907 7.907 0 0 0 2.7-2.175c.75-.933 1.342-2.05 1.775-3.35.433-1.3.65-2.733.65-4.3 0-1.6-.217-3.05-.65-4.35-.434-1.3-1.025-2.425-1.775-3.375a7.797 7.797 0 0 0-2.7-2.2 7.537 7.537 0 0 0-3.375-.775c-1.2 0-2.317.258-3.35.775a7.862 7.862 0 0 0-2.675 2.2c-.75.95-1.342 2.075-1.775 3.375-.434 1.3-.65 2.75-.65 4.35 0 1.567.216 3 .65 4.3.433 1.3 1.025 2.417 1.775 3.35a7.975 7.975 0 0 0 2.675 2.175 7.381 7.381 0 0 0 3.35.775zM654.973 231.55c-3.034 0-5.434-.6-7.2-1.8-1.767-1.2-2.65-2.817-2.65-4.85 0-1.067.316-2.1.95-3.1.633-1 1.5-1.9 2.6-2.7v-.2c-.6-.366-1.1-.866-1.5-1.5-.4-.633-.6-1.417-.6-2.35 0-1.066.3-1.975.9-2.725.6-.75 1.166-1.308 1.7-1.675v-.2c-.767-.667-1.458-1.566-2.075-2.7-.617-1.133-.925-2.433-.925-3.9 0-1.233.216-2.367.65-3.4a8.045 8.045 0 0 1 1.8-2.675 8.205 8.205 0 0 1 2.7-1.75 8.731 8.731 0 0 1 3.3-.625c.667 0 1.266.059 1.8.175.533.117.983.258 1.35.425h8.15v1.85h-5.6c.767.667 1.4 1.525 1.9 2.575.5 1.05.75 2.209.75 3.475 0 1.234-.217 2.367-.65 3.4-.434 1.034-1.025 1.925-1.775 2.675s-1.633 1.333-2.65 1.75a8.545 8.545 0 0 1-3.275.625 9.128 9.128 0 0 1-2.075-.25 6.837 6.837 0 0 1-1.925-.75 7.523 7.523 0 0 0-1.375 1.45c-.384.534-.575 1.2-.575 2 0 .867.316 1.609.95 2.225.633.617 1.85.925 3.65.925h5.15c2.7 0 4.691.442 5.975 1.325 1.283.883 1.925 2.275 1.925 4.175 0 1.033-.267 2.041-.8 3.025-.534.983-1.292 1.85-2.275 2.6-.984.75-2.175 1.35-3.575 1.8s-2.968.675-4.7.675zm.25-1.8c1.333 0 2.55-.175 3.65-.525s2.033-.809 2.8-1.375c.767-.567 1.358-1.208 1.775-1.925.417-.717.625-1.458.625-2.225 0-1.334-.475-2.275-1.425-2.825s-2.325-.825-4.125-.825h-5.15c-.267 0-.675-.025-1.225-.075-.55-.05-1.142-.158-1.775-.325-1.1.767-1.9 1.583-2.4 2.45-.5.866-.75 1.733-.75 2.6 0 1.5.691 2.716 2.075 3.65 1.382.933 3.357 1.4 5.925 1.4zm-.6-19.15c.833 0 1.625-.158 2.375-.475a5.78 5.78 0 0 0 1.975-1.375 6.751 6.751 0 0 0 1.35-2.15c.333-.833.5-1.75.5-2.75s-.167-1.917-.5-2.75c-.333-.833-.775-1.533-1.325-2.1a5.814 5.814 0 0 0-1.975-1.325 6.241 6.241 0 0 0-2.4-.475c-.867 0-1.675.158-2.425.475a6.165 6.165 0 0 0-1.975 1.325 6.197 6.197 0 0 0-1.35 2.075c-.333.817-.5 1.742-.5 2.775 0 1 .167 1.917.5 2.75a6.52 6.52 0 0 0 1.375 2.15 6.036 6.036 0 0 0 4.375 1.85zM671.824 190.2c-.567 0-1.042-.183-1.425-.55-.384-.366-.575-.833-.575-1.4 0-.633.191-1.125.575-1.475.383-.35.857-.525 1.425-.525.566 0 1.042.175 1.425.525.383.35.575.842.575 1.475 0 .567-.192 1.034-.575 1.4-.383.367-.858.55-1.425.55zm-1.15 29.8v-24h2.2v24h-2.2zM686.722 220.6c-1.8 0-3.45-.325-4.95-.975s-2.784-1.425-3.85-2.325l1.3-1.65a16.806 16.806 0 0 0 3.3 2.175c1.166.583 2.616.875 4.35.875 1.9 0 3.325-.475 4.275-1.425.95-.95 1.425-2.058 1.425-3.325 0-.733-.175-1.383-.525-1.95a4.963 4.963 0 0 0-1.375-1.45c-.567-.4-1.192-.75-1.875-1.05-.684-.3-1.375-.583-2.075-.85-.9-.333-1.809-.683-2.725-1.05a12.025 12.025 0 0 1-2.475-1.325 6.43 6.43 0 0 1-1.775-1.85c-.45-.716-.675-1.591-.675-2.625 0-.866.167-1.691.5-2.475a5.62 5.62 0 0 1 1.5-2.05c.667-.583 1.475-1.042 2.425-1.375.95-.333 2.058-.5 3.325-.5 1.267 0 2.508.234 3.725.7 1.216.467 2.258 1.067 3.125 1.8l-1.2 1.55c-.8-.6-1.65-1.108-2.55-1.525-.9-.416-1.967-.625-3.2-.625-.934 0-1.733.125-2.4.375-.667.25-1.225.575-1.675.975-.45.4-.784.867-1 1.4a4.22 4.22 0 0 0-.325 1.6c0 .7.158 1.292.475 1.775.316.484.741.909 1.275 1.275a9.874 9.874 0 0 0 1.825.975c.683.284 1.375.559 2.075.825l2.8 1.1c.933.367 1.775.817 2.525 1.35s1.358 1.192 1.825 1.975c.467.784.7 1.759.7 2.925 0 .9-.175 1.758-.525 2.575a5.977 5.977 0 0 1-1.575 2.15c-.7.617-1.55 1.108-2.55 1.475-1 .367-2.15.55-3.45.55zM709.661 220.6c-1.567 0-3.009-.284-4.325-.85a10.03 10.03 0 0 1-3.45-2.45c-.984-1.066-1.75-2.375-2.3-3.925-.55-1.55-.825-3.325-.825-5.325s.3-3.791.9-5.375c.6-1.583 1.4-2.908 2.4-3.975 1-1.066 2.158-1.883 3.475-2.45a10.457 10.457 0 0 1 4.175-.85c1.667 0 3.05.3 4.15.9 1.1.6 2.066 1.284 2.9 2.05l-1.3 1.55a11.015 11.015 0 0 0-2.55-1.825c-.934-.483-1.983-.725-3.15-.725-1.234 0-2.375.258-3.425.775a8.281 8.281 0 0 0-2.75 2.2c-.783.95-1.4 2.075-1.85 3.375-.45 1.3-.675 2.75-.675 4.35 0 1.567.208 3 .625 4.3.417 1.3 1 2.417 1.75 3.35a7.779 7.779 0 0 0 2.75 2.175c1.083.517 2.275.775 3.575.775 1.266 0 2.441-.266 3.525-.8a12.104 12.104 0 0 0 2.875-1.95l1.15 1.55a15.03 15.03 0 0 1-3.45 2.25c-1.267.6-2.667.9-4.2.9zM722.176 220v-35.95h2.2v15.7c1.267-1.267 2.55-2.308 3.85-3.125 1.3-.816 2.783-1.225 4.45-1.225 2.5 0 4.333.75 5.5 2.25 1.167 1.5 1.75 3.817 1.75 6.95V220h-2.2v-15.1c0-2.566-.425-4.458-1.275-5.675-.85-1.216-2.259-1.825-4.225-1.825-1.434 0-2.733.375-3.9 1.125-1.167.75-2.483 1.875-3.95 3.375V220h-2.2zM756.77 220.6c-1.534 0-2.975-.284-4.325-.85s-2.525-1.392-3.525-2.475c-1-1.083-1.792-2.4-2.375-3.95-.583-1.55-.875-3.308-.875-5.275 0-1.966.292-3.732.875-5.3.583-1.566 1.366-2.892 2.35-3.975.982-1.083 2.1-1.917 3.35-2.5a9.071 9.071 0 0 1 3.875-.875c2.867 0 5.117.967 6.75 2.9 1.633 1.934 2.45 4.667 2.45 8.2v.9c0 .3-.034.6-.1.9h-17.3c.033 1.5.266 2.893.7 4.175.433 1.284 1.042 2.383 1.825 3.3a8.316 8.316 0 0 0 2.825 2.15c1.1.518 2.333.775 3.7.775 1.3 0 2.475-.191 3.525-.575a11.514 11.514 0 0 0 2.925-1.575l.9 1.7c-.967.567-2.025 1.1-3.175 1.6s-2.609.75-4.375.75zm-8.85-14.1h15.3c0-3.1-.633-5.408-1.9-6.925-1.267-1.517-2.983-2.275-5.15-2.275a7.164 7.164 0 0 0-2.95.625c-.934.417-1.775 1.025-2.525 1.825s-1.367 1.767-1.85 2.9c-.484 1.134-.792 2.417-.925 3.85zM782.072 220v-32.95h2.3v14.45h17.65v-14.45h2.3V220h-2.3v-16.5h-17.65V220h-2.3zM821.531 220.6a10.16 10.16 0 0 1-7.525-3.3c-.984-1.066-1.768-2.375-2.35-3.925-.583-1.55-.875-3.325-.875-5.325s.292-3.791.875-5.375c.583-1.583 1.366-2.908 2.35-3.975a10.164 10.164 0 0 1 7.525-3.3c1.433 0 2.808.284 4.125.85a10.075 10.075 0 0 1 3.45 2.45c.983 1.067 1.767 2.392 2.35 3.975.583 1.584.875 3.375.875 5.375s-.292 3.775-.875 5.325c-.583 1.55-1.367 2.858-2.35 3.925a10.03 10.03 0 0 1-3.45 2.45c-1.317.566-2.692.85-4.125.85zm0-1.95c1.2 0 2.325-.258 3.375-.775a7.907 7.907 0 0 0 2.7-2.175c.75-.933 1.342-2.05 1.775-3.35.433-1.3.65-2.733.65-4.3 0-1.6-.217-3.05-.65-4.35-.434-1.3-1.025-2.425-1.775-3.375a7.797 7.797 0 0 0-2.7-2.2 7.537 7.537 0 0 0-3.375-.775c-1.2 0-2.317.258-3.35.775a7.862 7.862 0 0 0-2.675 2.2c-.75.95-1.342 2.075-1.775 3.375-.434 1.3-.65 2.75-.65 4.35 0 1.567.216 3 .65 4.3.433 1.3 1.025 2.417 1.775 3.35a7.975 7.975 0 0 0 2.675 2.175 7.381 7.381 0 0 0 3.35.775zM847.767 220.6c-1.567 0-3.009-.284-4.325-.85a10.03 10.03 0 0 1-3.45-2.45c-.984-1.066-1.75-2.375-2.3-3.925-.55-1.55-.825-3.325-.825-5.325s.3-3.791.9-5.375c.6-1.583 1.4-2.908 2.4-3.975 1-1.066 2.158-1.883 3.475-2.45a10.457 10.457 0 0 1 4.175-.85c1.667 0 3.05.3 4.15.9 1.1.6 2.066 1.284 2.9 2.05l-1.3 1.55a11.015 11.015 0 0 0-2.55-1.825c-.934-.483-1.983-.725-3.15-.725-1.234 0-2.375.258-3.425.775a8.281 8.281 0 0 0-2.75 2.2c-.783.95-1.4 2.075-1.85 3.375-.45 1.3-.675 2.75-.675 4.35 0 1.567.208 3 .625 4.3.417 1.3 1 2.417 1.75 3.35a7.779 7.779 0 0 0 2.75 2.175c1.083.517 2.275.775 3.575.775 1.266 0 2.441-.266 3.525-.8a12.104 12.104 0 0 0 2.875-1.95l1.15 1.55a15.03 15.03 0 0 1-3.45 2.25c-1.268.6-2.668.9-4.2.9zM860.296 220v-35.95h2.2v15.7c1.267-1.267 2.55-2.308 3.85-3.125 1.3-.816 2.783-1.225 4.45-1.225 2.5 0 4.333.75 5.5 2.25 1.167 1.5 1.75 3.817 1.75 6.95V220h-2.2v-15.1c0-2.566-.425-4.458-1.275-5.675-.85-1.216-2.259-1.825-4.225-1.825-1.434 0-2.733.375-3.9 1.125-1.167.75-2.483 1.875-3.95 3.375V220h-2.2zM891.652 220.6c-1.8 0-3.45-.325-4.95-.975s-2.784-1.425-3.85-2.325l1.3-1.65a16.806 16.806 0 0 0 3.3 2.175c1.166.583 2.616.875 4.35.875 1.9 0 3.325-.475 4.275-1.425.95-.95 1.425-2.058 1.425-3.325 0-.733-.175-1.383-.525-1.95a4.963 4.963 0 0 0-1.375-1.45c-.567-.4-1.192-.75-1.875-1.05-.684-.3-1.375-.583-2.075-.85-.9-.333-1.809-.683-2.725-1.05a12.025 12.025 0 0 1-2.475-1.325 6.43 6.43 0 0 1-1.775-1.85c-.45-.716-.675-1.591-.675-2.625 0-.866.167-1.691.5-2.475a5.62 5.62 0 0 1 1.5-2.05c.667-.583 1.475-1.042 2.425-1.375.95-.333 2.058-.5 3.325-.5 1.267 0 2.508.234 3.725.7 1.216.467 2.258 1.067 3.125 1.8l-1.2 1.55c-.8-.6-1.65-1.108-2.55-1.525-.9-.416-1.967-.625-3.2-.625-.934 0-1.733.125-2.4.375-.667.25-1.225.575-1.675.975-.45.4-.784.867-1 1.4a4.22 4.22 0 0 0-.325 1.6c0 .7.158 1.292.475 1.775.316.484.741.909 1.275 1.275a9.874 9.874 0 0 0 1.825.975c.683.284 1.375.559 2.075.825l2.8 1.1c.933.367 1.775.817 2.525 1.35s1.358 1.192 1.825 1.975c.467.784.7 1.759.7 2.925 0 .9-.175 1.758-.525 2.575a5.977 5.977 0 0 1-1.575 2.15c-.7.617-1.55 1.108-2.55 1.475-1 .367-2.15.55-3.45.55zM914.59 220.6c-1.567 0-3.009-.284-4.325-.85a10.03 10.03 0 0 1-3.45-2.45c-.984-1.066-1.75-2.375-2.3-3.925-.55-1.55-.825-3.325-.825-5.325s.3-3.791.9-5.375c.6-1.583 1.4-2.908 2.4-3.975 1-1.066 2.158-1.883 3.475-2.45a10.457 10.457 0 0 1 4.175-.85c1.667 0 3.05.3 4.15.9 1.1.6 2.066 1.284 2.9 2.05l-1.3 1.55a11.015 11.015 0 0 0-2.55-1.825c-.934-.483-1.983-.725-3.15-.725-1.234 0-2.375.258-3.425.775a8.281 8.281 0 0 0-2.75 2.2c-.783.95-1.4 2.075-1.85 3.375-.45 1.3-.675 2.75-.675 4.35 0 1.567.208 3 .625 4.3.417 1.3 1 2.417 1.75 3.35a7.779 7.779 0 0 0 2.75 2.175c1.083.517 2.275.775 3.575.775 1.266 0 2.441-.266 3.525-.8a12.104 12.104 0 0 0 2.875-1.95l1.15 1.55a15.03 15.03 0 0 1-3.45 2.25c-1.267.6-2.667.9-4.2.9zM927.13 220v-35.95h2.2v15.7c1.267-1.267 2.55-2.308 3.85-3.125 1.3-.816 2.783-1.225 4.45-1.225 2.5 0 4.333.75 5.5 2.25 1.167 1.5 1.75 3.817 1.75 6.95V220h-2.2v-15.1c0-2.566-.425-4.458-1.275-5.675-.85-1.216-2.259-1.825-4.225-1.825-1.434 0-2.733.375-3.9 1.125-1.167.75-2.483 1.875-3.95 3.375V220h-2.2zM959.194 220.6c-2.5 0-4.333-.75-5.5-2.25-1.167-1.5-1.75-3.816-1.75-6.95V196h2.2v15.1c0 2.567.425 4.458 1.275 5.675.85 1.217 2.241 1.825 4.175 1.825a6.846 6.846 0 0 0 3.9-1.175c1.167-.783 2.45-2.025 3.85-3.725V196h2.2v24h-1.85l-.25-4h-.1c-1.167 1.4-2.4 2.517-3.7 3.35-1.3.833-2.783 1.25-4.45 1.25zM980.114 220.6c-1.967 0-2.95-1.267-2.95-3.8v-32.75h2.2v33.05c0 .534.1.925.3 1.175.2.25.45.375.75.375h.325c.117 0 .308-.033.575-.1l.4 1.8c-.233.066-.467.125-.7.175a4.42 4.42 0 0 1-.9.075zM996.676 220.6c-1.534 0-2.975-.284-4.325-.85s-2.525-1.392-3.525-2.475c-1-1.083-1.792-2.4-2.375-3.95-.583-1.55-.875-3.308-.875-5.275 0-1.966.292-3.732.875-5.3.583-1.566 1.366-2.892 2.35-3.975.982-1.083 2.1-1.917 3.35-2.5a9.071 9.071 0 0 1 3.875-.875c2.867 0 5.117.967 6.75 2.9 1.633 1.934 2.45 4.667 2.45 8.2v.9c0 .3-.034.6-.1.9h-17.3c.033 1.5.266 2.893.7 4.175.433 1.284 1.042 2.383 1.825 3.3a8.316 8.316 0 0 0 2.825 2.15c1.1.518 2.333.775 3.7.775 1.3 0 2.475-.191 3.525-.575a11.514 11.514 0 0 0 2.925-1.575l.9 1.7c-.967.567-2.025 1.1-3.175 1.6s-2.609.75-4.375.75zm-8.85-14.1h15.3c0-3.1-.633-5.408-1.9-6.925-1.267-1.517-2.983-2.275-5.15-2.275a7.164 7.164 0 0 0-2.95.625c-.934.417-1.775 1.025-2.525 1.825s-1.367 1.767-1.85 2.9c-.483 1.134-.792 2.417-.925 3.85zM511.112 160.6c-1.4 0-2.767-.208-4.1-.625a8.699 8.699 0 0 1-3.55-2.15c-1.034-1.017-1.858-2.375-2.475-4.075-.617-1.7-.925-3.833-.925-6.4v-20.3h2.3v20.05c0 2.2.242 4.025.725 5.475.483 1.45 1.125 2.617 1.925 3.5s1.725 1.508 2.775 1.875c1.05.367 2.158.55 3.325.55a10.6 10.6 0 0 0 3.425-.55c1.083-.367 2.033-.992 2.85-1.875.816-.883 1.475-2.05 1.975-3.5.5-1.45.75-3.275.75-5.475v-20.05h2.15v20.3c0 2.567-.317 4.7-.95 6.4-.634 1.7-1.467 3.059-2.5 4.075a8.718 8.718 0 0 1-3.55 2.15 13.821 13.821 0 0 1-4.15.625zM530.013 160v-24h1.9l.2 3.7h.15c1.233-1.233 2.5-2.258 3.8-3.075 1.3-.816 2.783-1.225 4.45-1.225 2.5 0 4.333.75 5.5 2.25 1.167 1.5 1.75 3.817 1.75 6.95V160h-2.2v-15.1c0-2.566-.425-4.458-1.275-5.675-.85-1.216-2.259-1.825-4.225-1.825-1.434 0-2.733.375-3.9 1.125-1.167.75-2.483 1.875-3.95 3.375V160h-2.2zM556.323 130.2c-.567 0-1.042-.183-1.425-.55-.384-.366-.575-.833-.575-1.4 0-.633.191-1.125.575-1.475.383-.35.857-.525 1.425-.525.566 0 1.042.175 1.425.525.383.35.575.842.575 1.475 0 .567-.192 1.034-.575 1.4-.383.367-.858.55-1.425.55zm-1.15 29.8v-24h2.2v24h-2.2zM570.952 160l-9-24h2.4l5.4 15.05a72.725 72.725 0 0 0 1.2 3.5c.433 1.167.833 2.3 1.2 3.4h.2c.4-1.1.808-2.233 1.225-3.4.417-1.166.825-2.333 1.225-3.5l5.4-15.05h2.25l-8.9 24h-2.6zM595.605 160.6c-1.534 0-2.975-.284-4.325-.85s-2.525-1.392-3.525-2.475c-1-1.083-1.792-2.4-2.375-3.95-.583-1.55-.875-3.308-.875-5.275 0-1.966.292-3.732.875-5.3.583-1.566 1.366-2.892 2.35-3.975.982-1.083 2.1-1.917 3.35-2.5a9.071 9.071 0 0 1 3.875-.875c2.867 0 5.117.967 6.75 2.9 1.633 1.934 2.45 4.667 2.45 8.2v.9c0 .3-.034.6-.1.9h-17.3c.033 1.5.266 2.893.7 4.175.433 1.284 1.042 2.383 1.825 3.3a8.316 8.316 0 0 0 2.825 2.15c1.1.518 2.333.775 3.7.775 1.3 0 2.475-.191 3.525-.575a11.514 11.514 0 0 0 2.925-1.575l.9 1.7c-.967.567-2.025 1.1-3.175 1.6s-2.608.75-4.375.75zm-8.85-14.1h15.3c0-3.1-.633-5.408-1.9-6.925-1.267-1.517-2.983-2.275-5.15-2.275a7.164 7.164 0 0 0-2.95.625c-.934.417-1.775 1.025-2.525 1.825s-1.367 1.767-1.85 2.9c-.483 1.134-.792 2.417-.925 3.85zM609.748 160v-24h1.9l.2 4.45h.15c.8-1.5 1.775-2.717 2.925-3.65 1.15-.933 2.441-1.4 3.875-1.4.466 0 .883.034 1.25.1.367.067.75.2 1.15.4l-.5 2c-.4-.167-.75-.275-1.05-.325-.3-.05-.684-.075-1.15-.075-1.067 0-2.192.458-3.375 1.375-1.184.917-2.242 2.509-3.175 4.775V160h-2.2zM631.493 160.6c-1.8 0-3.45-.325-4.95-.975s-2.784-1.425-3.85-2.325l1.3-1.65a16.806 16.806 0 0 0 3.3 2.175c1.166.583 2.616.875 4.35.875 1.9 0 3.325-.475 4.275-1.425.95-.95 1.425-2.058 1.425-3.325 0-.733-.175-1.383-.525-1.95a4.963 4.963 0 0 0-1.375-1.45c-.567-.4-1.192-.75-1.875-1.05-.684-.3-1.375-.583-2.075-.85-.9-.333-1.809-.683-2.725-1.05a12.025 12.025 0 0 1-2.475-1.325 6.43 6.43 0 0 1-1.775-1.85c-.45-.716-.675-1.591-.675-2.625 0-.866.167-1.691.5-2.475a5.62 5.62 0 0 1 1.5-2.05c.667-.583 1.475-1.042 2.425-1.375.95-.333 2.058-.5 3.325-.5 1.267 0 2.508.234 3.725.7 1.216.467 2.258 1.067 3.125 1.8l-1.2 1.55c-.8-.6-1.65-1.108-2.55-1.525-.9-.416-1.967-.625-3.2-.625-.934 0-1.733.125-2.4.375-.667.25-1.225.575-1.675.975-.45.4-.784.867-1 1.4a4.22 4.22 0 0 0-.325 1.6c0 .7.158 1.292.475 1.775.316.484.741.909 1.275 1.275a9.874 9.874 0 0 0 1.825.975c.683.284 1.375.559 2.075.825l2.8 1.1c.933.367 1.775.817 2.525 1.35s1.358 1.192 1.825 1.975c.467.784.7 1.759.7 2.925 0 .9-.175 1.758-.525 2.575a5.977 5.977 0 0 1-1.575 2.15c-.7.617-1.55 1.108-2.55 1.475-1 .367-2.15.55-3.45.55zM645.869 130.2c-.567 0-1.042-.183-1.425-.55-.384-.366-.575-.833-.575-1.4 0-.633.191-1.125.575-1.475.383-.35.857-.525 1.425-.525.566 0 1.042.175 1.425.525.383.35.575.842.575 1.475 0 .567-.192 1.034-.575 1.4-.384.367-.859.55-1.425.55zm-1.15 29.8v-24h2.2v24h-2.2zM661.618 160.6c-1.167 0-2.133-.175-2.9-.525-.767-.35-1.384-.842-1.85-1.475-.467-.633-.792-1.4-.975-2.3-.184-.9-.275-1.883-.275-2.95V137.9h-3.75v-1.7l3.8-.2.3-6.95h1.9V136h6.95v1.9h-6.95v15.65c0 .768.058 1.459.175 2.075.116.617.325 1.15.625 1.6.3.45.708.8 1.225 1.05.517.25 1.191.375 2.025.375.466 0 .975-.075 1.525-.225a9.461 9.461 0 0 0 1.475-.525l.6 1.8c-.7.267-1.4.482-2.1.65-.7.167-1.3.25-1.8.25zM670.864 170.95c-.9 0-1.717-.167-2.45-.5l.5-1.95c.266.1.566.191.9.275.333.083.683.125 1.05.125 1.5 0 2.75-.6 3.75-1.8 1-1.2 1.8-2.717 2.4-4.55l.65-2.1-9.85-24.45h2.4l5.8 15.1c.367 1 .775 2.1 1.225 3.3.45 1.2.908 2.333 1.375 3.4h.2c.366-1.066.741-2.2 1.125-3.4.383-1.2.741-2.3 1.075-3.3l5.15-15.1h2.25l-9.5 27c-.334 1-.742 1.983-1.225 2.95a11.777 11.777 0 0 1-1.7 2.55 7.976 7.976 0 0 1-2.25 1.775c-.85.45-1.809.675-2.875.675zM712.37 160.6a10.16 10.16 0 0 1-7.525-3.3c-.984-1.066-1.768-2.375-2.35-3.925-.583-1.55-.875-3.325-.875-5.325s.292-3.791.875-5.375c.583-1.583 1.366-2.908 2.35-3.975a10.164 10.164 0 0 1 7.525-3.3c1.433 0 2.808.284 4.125.85a10.075 10.075 0 0 1 3.45 2.45c.983 1.067 1.767 2.392 2.35 3.975.583 1.584.875 3.375.875 5.375s-.292 3.775-.875 5.325c-.583 1.55-1.367 2.858-2.35 3.925a10.03 10.03 0 0 1-3.45 2.45c-1.317.566-2.692.85-4.125.85zm0-1.95c1.2 0 2.325-.258 3.375-.775a7.907 7.907 0 0 0 2.7-2.175c.75-.933 1.342-2.05 1.775-3.35.433-1.3.65-2.733.65-4.3 0-1.6-.217-3.05-.65-4.35-.434-1.3-1.025-2.425-1.775-3.375a7.797 7.797 0 0 0-2.7-2.2 7.537 7.537 0 0 0-3.375-.775c-1.2 0-2.317.258-3.35.775a7.862 7.862 0 0 0-2.675 2.2c-.75.95-1.342 2.075-1.775 3.375-.434 1.3-.65 2.75-.65 4.35 0 1.567.216 3 .65 4.3.433 1.3 1.025 2.417 1.775 3.35a7.975 7.975 0 0 0 2.675 2.175 7.381 7.381 0 0 0 3.35.775zM729.341 160v-22.1h-3.3v-1.7l3.3-.2v-5.35c0-2.4.516-4.2 1.55-5.4 1.033-1.2 2.5-1.8 4.4-1.8 1.167 0 2.333.267 3.5.8l-.6 1.8c-.5-.266-.992-.45-1.475-.55-.484-.1-.959-.15-1.425-.15-1.267 0-2.208.467-2.825 1.4-.617.934-.925 2.284-.925 4.05v5.2h5.55v1.9h-5.55V160h-2.2zM752.404 160v-32.95h18.05v2h-15.75v12.45h13.2v2h-13.2V158h16.25v2h-18.55zM783.934 160.6c-3.033 0-5.45-1.075-7.25-3.225-1.8-2.15-2.7-5.258-2.7-9.325 0-1.933.283-3.683.85-5.25.566-1.566 1.341-2.9 2.325-4a10.19 10.19 0 0 1 3.4-2.525 9.74 9.74 0 0 1 4.075-.875c1.466 0 2.741.259 3.825.775 1.083.518 2.225 1.242 3.425 2.175l-.1-4.4v-9.9h2.2V160h-1.9l-.2-3.1h-.15c-.967.967-2.109 1.825-3.425 2.575-1.317.75-2.775 1.125-4.375 1.125zm.3-1.95c1.333 0 2.608-.341 3.825-1.025 1.217-.683 2.458-1.658 3.725-2.925v-14.25c-1.267-1.133-2.458-1.933-3.575-2.4a8.821 8.821 0 0 0-3.425-.7 7.02 7.02 0 0 0-3.35.825 8.432 8.432 0 0 0-2.675 2.25c-.75.95-1.342 2.084-1.775 3.4-.434 1.317-.65 2.725-.65 4.225 0 1.6.175 3.05.525 4.35.35 1.3.858 2.409 1.525 3.325a7.122 7.122 0 0 0 2.475 2.15c.983.517 2.108.775 3.375.775zM808.668 160.6c-2.5 0-4.333-.75-5.5-2.25-1.167-1.5-1.75-3.816-1.75-6.95V136h2.2v15.1c0 2.567.425 4.458 1.275 5.675.85 1.217 2.241 1.825 4.175 1.825a6.846 6.846 0 0 0 3.9-1.175c1.167-.783 2.45-2.025 3.85-3.725V136h2.2v24h-1.85l-.25-4h-.1c-1.167 1.4-2.4 2.517-3.7 3.35-1.3.833-2.783 1.25-4.45 1.25zM835.99 160.6c-1.567 0-3.009-.284-4.325-.85a10.03 10.03 0 0 1-3.45-2.45c-.984-1.066-1.75-2.375-2.3-3.925-.55-1.55-.825-3.325-.825-5.325s.3-3.791.9-5.375c.6-1.583 1.4-2.908 2.4-3.975 1-1.066 2.158-1.883 3.475-2.45a10.457 10.457 0 0 1 4.175-.85c1.667 0 3.05.3 4.15.9 1.1.6 2.066 1.284 2.9 2.05l-1.3 1.55a11.015 11.015 0 0 0-2.55-1.825c-.934-.483-1.983-.725-3.15-.725-1.234 0-2.375.258-3.425.775a8.281 8.281 0 0 0-2.75 2.2c-.783.95-1.4 2.075-1.85 3.375-.45 1.3-.675 2.75-.675 4.35 0 1.567.208 3 .625 4.3.417 1.3 1 2.417 1.75 3.35a7.779 7.779 0 0 0 2.75 2.175c1.083.517 2.275.775 3.575.775 1.266 0 2.441-.266 3.525-.8a12.104 12.104 0 0 0 2.875-1.95l1.15 1.55a15.03 15.03 0 0 1-3.45 2.25c-1.268.6-2.668.9-4.2.9zM854.493 160.6a8.83 8.83 0 0 1-2.7-.4 6.418 6.418 0 0 1-2.2-1.2c-.634-.533-1.134-1.216-1.5-2.05-.367-.833-.55-1.816-.55-2.95 0-2.667 1.242-4.691 3.725-6.075 2.483-1.383 6.408-2.375 11.775-2.975 0-.9-.067-1.808-.2-2.725-.134-.917-.417-1.733-.85-2.45a5.185 5.185 0 0 0-1.75-1.75c-.734-.45-1.7-.675-2.9-.675-1.6 0-3.067.317-4.4.95-1.333.634-2.417 1.25-3.25 1.85l-1-1.65c.433-.3.958-.633 1.575-1 .616-.366 1.308-.7 2.075-1 .766-.3 1.6-.558 2.5-.775.9-.216 1.833-.325 2.8-.325 1.4 0 2.583.242 3.55.725a6.325 6.325 0 0 1 2.35 1.975c.6.833 1.033 1.809 1.3 2.925.266 1.117.4 2.325.4 3.625V160h-1.9l-.2-3.1h-.15a26.653 26.653 0 0 1-3.975 2.575 9.532 9.532 0 0 1-4.525 1.125zm.4-1.9c1.4 0 2.733-.333 4-1s2.65-1.633 4.15-2.9v-8.15c-2.467.3-4.55.667-6.25 1.1-1.7.434-3.067.95-4.1 1.55-1.033.6-1.775 1.284-2.225 2.05a4.946 4.946 0 0 0-.675 2.55c0 .867.133 1.6.4 2.2.267.6.633 1.092 1.1 1.475a4.58 4.58 0 0 0 1.625.85 6.901 6.901 0 0 0 1.975.275zM878.868 160.6c-1.167 0-2.133-.175-2.9-.525-.767-.35-1.384-.842-1.85-1.475-.467-.633-.792-1.4-.975-2.3-.184-.9-.275-1.883-.275-2.95V137.9h-3.75v-1.7l3.8-.2.3-6.95h1.9V136h6.95v1.9h-6.95v15.65c0 .768.058 1.459.175 2.075.116.617.325 1.15.625 1.6.3.45.708.8 1.225 1.05.517.25 1.191.375 2.025.375.466 0 .975-.075 1.525-.225a9.461 9.461 0 0 0 1.475-.525l.6 1.8c-.7.267-1.4.482-2.1.65-.7.167-1.3.25-1.8.25zM888.471 130.2c-.567 0-1.042-.183-1.425-.55-.384-.366-.575-.833-.575-1.4 0-.633.191-1.125.575-1.475.383-.35.857-.525 1.425-.525.566 0 1.042.175 1.425.525.383.35.575.842.575 1.475 0 .567-.192 1.034-.575 1.4-.383.367-.858.55-1.425.55zm-1.15 29.8v-24h2.2v24h-2.2zM906.301 160.6a10.16 10.16 0 0 1-7.525-3.3c-.984-1.066-1.768-2.375-2.35-3.925-.583-1.55-.875-3.325-.875-5.325s.292-3.791.875-5.375c.583-1.583 1.366-2.908 2.35-3.975a10.164 10.164 0 0 1 7.525-3.3c1.433 0 2.808.284 4.125.85a10.075 10.075 0 0 1 3.45 2.45c.983 1.067 1.767 2.392 2.35 3.975.583 1.584.875 3.375.875 5.375s-.292 3.775-.875 5.325c-.583 1.55-1.367 2.858-2.35 3.925a10.03 10.03 0 0 1-3.45 2.45c-1.317.566-2.692.85-4.125.85zm0-1.95c1.2 0 2.325-.258 3.375-.775a7.907 7.907 0 0 0 2.7-2.175c.75-.933 1.342-2.05 1.775-3.35.433-1.3.65-2.733.65-4.3 0-1.6-.217-3.05-.65-4.35-.434-1.3-1.025-2.425-1.775-3.375a7.797 7.797 0 0 0-2.7-2.2 7.537 7.537 0 0 0-3.375-.775c-1.2 0-2.317.258-3.35.775a7.862 7.862 0 0 0-2.675 2.2c-.75.95-1.342 2.075-1.775 3.375-.434 1.3-.65 2.75-.65 4.35 0 1.567.216 3 .65 4.3.433 1.3 1.025 2.417 1.775 3.35a7.975 7.975 0 0 0 2.675 2.175 7.381 7.381 0 0 0 3.35.775zM923.163 160v-24h1.9l.2 3.7h.15c1.233-1.233 2.5-2.258 3.8-3.075 1.3-.816 2.783-1.225 4.45-1.225 2.5 0 4.333.75 5.5 2.25 1.167 1.5 1.75 3.817 1.75 6.95V160h-2.2v-15.1c0-2.566-.425-4.458-1.275-5.675-.85-1.216-2.259-1.825-4.225-1.825-1.434 0-2.733.375-3.9 1.125-1.167.75-2.483 1.875-3.95 3.375V160h-2.2z"></path>
  <g fill="#267326">
    <path d="M360 140c-44.219 0-80 35.781-80 80v100h-20V40h20c0 44.219 35.781 80 80 80 55.273 0 100 44.727 100 100v100h-20V220c0-44.219-35.781-80-80-80zM60 220c0-44.219 35.781-80 80-80s80 35.781 80 80-35.781 80-80 80-80-35.781-80-80zm180 0c0-55.273-44.727-100-100-100H40v280h20c0-44.219 35.781-80 80-80 55.273 0 100-44.727 100-100z"></path>
  </g>
</svg>
